<?xml version="1.0" encoding="utf-8"?>
<!-- Generator: Adobe Illustrator 24.1.1, SVG Export Plug-In . SVG Version: 6.00 Build 0)  -->
<svg version="1.1" id="Layer_1" xmlns="http://www.w3.org/2000/svg" xmlns:xlink="http://www.w3.org/1999/xlink" x="0px" y="0px"
	 viewBox="0 0 512 512" style="enable-background:new 0 0 512 512;" xml:space="preserve">
<g>
	<path d="M433,188.8L433,188.8c-19.5,0-37.3,7-51,18.7l0.1-0.1c-30.9-14.9-67-24.1-104.5-26.6l19.1-95.5l36.1,4.6l0,0.6v0.1
		c0,37,29.9,66.9,66.9,66.9s66.9-29.9,66.9-66.9s-29.9-66.9-66.9-66.9c-24.4,0-45.8,13.1-57.5,32.7l-0.2,0.3l-72.6-9.3l-26.6,133
		c-40.5,1.7-79.8,11.1-112.9,27.1c-13.7-11.6-31.4-18.6-50.9-18.6c-43.6,0-79,35.4-79,79c0,27.4,13.9,51.5,35.1,65.7l0.3,0.2v0.5
		c0,42.5,23.8,82,67.1,111.1c41.2,27.8,95.7,43.1,153.5,43.1s112.2-15.3,153.5-43.1c43.3-29.2,67.1-68.6,67.1-111.1v-0.5
		c21.5-14.4,35.4-38.5,35.4-65.9C512,224.2,476.6,188.8,433,188.8L433,188.8z M399.6,57.7c18,0,32.7,14.6,32.7,32.7
		S417.6,123,399.6,123s-32.7-14.6-32.7-32.7C366.9,72.3,381.6,57.7,399.6,57.7z M451.8,308.6l-11.1,5.1l1.3,12.2
		c0.3,2.5,0.5,5.4,0.5,8.3c0,30.8-18.5,60.2-52.1,82.8c-35.7,24-83.4,37.2-134.4,37.2S157.3,441,121.6,417
		c-33.6-22.6-52.1-52.1-52.1-82.8c0-2.9,0.2-5.8,0.5-8.6l0,0.3l1.3-12.2l-11.1-5.1c-15.5-7.3-26.1-22.8-26.1-40.7
		c0-24.8,20.1-44.9,44.9-44.9c13.9,0,26.3,6.3,34.5,16.2l0.1,0.1l9,10.9l12.4-6.9c33.8-18.8,76.8-29.1,121-29.1s87.2,10.3,121,29.1
		l12.4,6.9l9-10.9c8.3-9.9,20.7-16.2,34.5-16.2c24.8,0,44.9,20.1,44.9,44.9c0,18-10.5,33.4-25.8,40.6L451.8,308.6L451.8,308.6z"/>
</g>
</svg>
